<svg aria-hidden="true" style="position: absolute; width: 0; height: 0; overflow: hidden;" version="1.1" xmlns="http://www.w3.org/2000/svg" xmlns:xlink="http://www.w3.org/1999/xlink">
<defs>
<symbol id="icon-point-right" viewBox="0 0 32 32">
<path d="M13 30h5c1.654 0 3-1.346 3-3 0-0.535-0.14-1.037-0.387-1.472 0.833-0.534 1.387-1.467 1.387-2.528 0-0.768-0.29-1.469-0.766-2 0.476-0.531 0.766-1.232 0.766-2 0-0.35-0.060-0.687-0.171-1h7.171c1.654 0 3-1.346 3-3s-1.346-3-3-3h-12.334l2.932-5.501c0.262-0.454 0.401-0.973 0.401-1.499 0-1.654-1.346-3-3-3-0.824 0-1.592 0.327-2.163 0.922-0.007 0.008-0.015 0.015-0.022 0.023l-6.815 7.474v-1.419c0-0.552-0.448-1-1-1h-6c-0.552 0-1 0.448-1 1v20c0 0.552 0.448 1 1 1h6c0.552 0 1-0.448 1-1v-1.382l4.553 2.276c0.139 0.069 0.292 0.106 0.447 0.106zM5 28c-0.552 0-1-0.448-1-1s0.448-1 1-1 1 0.448 1 1-0.448 1-1 1zM13.236 28l-5.236-2.618v-11.995l8.287-9.088c0.19-0.193 0.443-0.299 0.713-0.299 0.551 0 1 0.449 1 1 0 0.171-0.041 0.332-0.122 0.479-0.010 0.017-0.020 0.033-0.029 0.051l-3.732 7c-0.165 0.31-0.156 0.684 0.025 0.985s0.506 0.485 0.857 0.485h14c0.551 0 1 0.449 1 1s-0.449 1-1 1h-10c-0.552 0-1 0.448-1 1s0.448 1 1 1c0.551 0 1 0.449 1 1s-0.449 1-1 1c-0.552 0-1 0.448-1 1s0.448 1 1 1c0.551 0 1 0.449 1 1s-0.449 1-1 1h-1c-0.552 0-1 0.448-1 1s0.448 1 1 1c0.551 0 1 0.449 1 1s-0.449 1-1 1h-4.764z"></path>
</symbol>
<symbol id="icon-arrow-right" viewBox="0 0 32 32">
<path d="M19.414 27.414l10-10c0.781-0.781 0.781-2.047 0-2.828l-10-10c-0.781-0.781-2.047-0.781-2.828 0s-0.781 2.047 0 2.828l6.586 6.586h-19.172c-1.105 0-2 0.895-2 2s0.895 2 2 2h19.172l-6.586 6.586c-0.39 0.39-0.586 0.902-0.586 1.414s0.195 1.024 0.586 1.414c0.781 0.781 2.047 0.781 2.828 0z"></path>
</symbol>
<symbol id="icon-circle-right" viewBox="0 0 32 32">
<path d="M16 0c-8.837 0-16 7.163-16 16s7.163 16 16 16 16-7.163 16-16-7.163-16-16-16zM16 29c-7.18 0-13-5.82-13-13s5.82-13 13-13 13 5.82 13 13-5.82 13-13 13z"></path>
<path d="M11.086 22.086l2.829 2.829 8.914-8.914-8.914-8.914-2.828 2.828 6.086 6.086z"></path>
</symbol>
<symbol id="icon-mail" viewBox="0 0 43 32">
<path d="M38.667 0h-34.667c-2.206 0-4 1.794-4 4v24c0 2.206 1.794 4 4 4h34.667c2.206 0 4-1.794 4-4v-24c0-2.206-1.794-4-4-4zM38.667 2.667c0.181 0 0.353 0.038 0.511 0.103l-17.844 15.466-17.844-15.466c0.158-0.066 0.33-0.103 0.511-0.103h34.667zM38.667 29.333h-34.667c-0.736 0-1.333-0.598-1.333-1.333v-22.413l17.793 15.421c0.251 0.217 0.563 0.326 0.874 0.326s0.622-0.108 0.874-0.326l17.793-15.421v22.413c0 0.736-0.598 1.333-1.333 1.333z"></path>
</symbol>
<symbol id="icon-location" viewBox="0 0 32 32">
<path d="M16 0c-5.523 0-10 4.477-10 10 0 10 10 22 10 22s10-12 10-22c0-5.523-4.477-10-10-10zM16 16c-3.314 0-6-2.686-6-6s2.686-6 6-6 6 2.686 6 6-2.686 6-6 6z"></path>
</symbol>
<symbol id="icon-mobile" viewBox="0 0 20 32">
<path d="M17 0h-14c-1.654 0-3 1.346-3 3v26c0 1.654 1.346 3 3 3h14c1.654 0 3-1.346 3-3v-26c0-1.654-1.346-3-3-3zM3 2h14c0.552 0 1 0.448 1 1v21h-16v-21c0-0.552 0.448-1 1-1zM17 30h-14c-0.552 0-1-0.448-1-1v-3h16v3c0 0.552-0.448 1-1 1z"></path>
</symbol>
<symbol id="icon-bubbles" viewBox="0 0 36 32">
<path d="M15 0v0c8.284 0 15 5.435 15 12.139s-6.716 12.139-15 12.139c-0.796 0-1.576-0.051-2.339-0.147-3.222 3.209-6.943 3.785-10.661 3.869v-0.785c2.008-0.98 3.625-2.765 3.625-4.804 0-0.285-0.022-0.564-0.063-0.837-3.392-2.225-5.562-5.625-5.562-9.434 0-6.704 6.716-12.139 15-12.139zM31.125 27.209c0 1.748 1.135 3.278 2.875 4.118v0.673c-3.223-0.072-6.181-0.566-8.973-3.316-0.661 0.083-1.337 0.126-2.027 0.126-2.983 0-5.732-0.805-7.925-2.157 4.521-0.016 8.789-1.464 12.026-4.084 1.631-1.32 2.919-2.87 3.825-4.605 0.961-1.84 1.449-3.799 1.449-5.825 0-0.326-0.014-0.651-0.039-0.974 2.268 1.873 3.664 4.426 3.664 7.24 0 3.265-1.88 6.179-4.82 8.086-0.036 0.234-0.055 0.474-0.055 0.718z"></path>
</symbol>
<symbol id="icon-point-up" viewBox="0 0 32 32">
<path d="M30 19v-5c0-1.654-1.346-3-3-3-0.535 0-1.037 0.14-1.472 0.386-0.534-0.833-1.467-1.386-2.528-1.386-0.768 0-1.469 0.29-2 0.766-0.531-0.476-1.232-0.766-2-0.766-0.35 0-0.687 0.060-1 0.171v-7.171c0-1.654-1.346-3-3-3s-3 1.346-3 3v12.334l-5.501-2.932c-0.454-0.262-0.973-0.401-1.499-0.401-1.654 0-3 1.346-3 3 0 0.824 0.327 1.592 0.922 2.163 0.008 0.007 0.015 0.015 0.023 0.022l7.474 6.815h-1.419c-0.552 0-1 0.448-1 1v6c0 0.552 0.448 1 1 1h20c0.552 0 1-0.448 1-1v-6c0-0.552-0.448-1-1-1h-1.382l2.276-4.553c0.069-0.139 0.106-0.292 0.106-0.447zM28 27c0 0.552-0.448 1-1 1s-1-0.448-1-1 0.448-1 1-1 1 0.448 1 1zM28 18.764l-2.618 5.236h-11.995l-9.088-8.286c-0.193-0.19-0.299-0.443-0.299-0.714 0-0.551 0.449-1 1-1 0.171 0 0.332 0.041 0.479 0.122 0.017 0.010 0.033 0.020 0.051 0.029l7 3.732c0.31 0.165 0.684 0.156 0.985-0.025s0.485-0.506 0.485-0.857v-14c0-0.551 0.449-1 1-1s1 0.449 1 1v10c0 0.552 0.448 1 1 1s1-0.448 1-1c0-0.551 0.449-1 1-1s1 0.449 1 1c0 0.552 0.448 1 1 1s1-0.448 1-1c0-0.551 0.449-1 1-1s1 0.449 1 1v1c0 0.552 0.448 1 1 1s1-0.448 1-1c0-0.551 0.449-1 1-1s1 0.449 1 1v4.764z"></path>
</symbol>
<symbol id="icon-facebook" viewBox="0 0 32 32">
<path d="M19 6h5v-6h-5c-3.86 0-7 3.14-7 7v3h-4v6h4v16h6v-16h5l1-6h-6v-3c0-0.542 0.458-1 1-1z"></path>
</symbol>
<symbol id="icon-facebook2" viewBox="0 0 32 32">
<path d="M29 0h-26c-1.65 0-3 1.35-3 3v26c0 1.65 1.35 3 3 3h13v-14h-4v-4h4v-2c0-3.306 2.694-6 6-6h4v4h-4c-1.1 0-2 0.9-2 2v2h6l-1 4h-5v14h9c1.65 0 3-1.35 3-3v-26c0-1.65-1.35-3-3-3z"></path>
</symbol>
<symbol id="icon-instagram" viewBox="0 0 32 32">
<path d="M16 2.881c4.275 0 4.781 0.019 6.462 0.094 1.563 0.069 2.406 0.331 2.969 0.55 0.744 0.288 1.281 0.638 1.837 1.194 0.563 0.563 0.906 1.094 1.2 1.838 0.219 0.563 0.481 1.412 0.55 2.969 0.075 1.688 0.094 2.194 0.094 6.463s-0.019 4.781-0.094 6.463c-0.069 1.563-0.331 2.406-0.55 2.969-0.288 0.744-0.637 1.281-1.194 1.837-0.563 0.563-1.094 0.906-1.837 1.2-0.563 0.219-1.413 0.481-2.969 0.55-1.688 0.075-2.194 0.094-6.463 0.094s-4.781-0.019-6.463-0.094c-1.563-0.069-2.406-0.331-2.969-0.55-0.744-0.288-1.281-0.637-1.838-1.194-0.563-0.563-0.906-1.094-1.2-1.837-0.219-0.563-0.481-1.413-0.55-2.969-0.075-1.688-0.094-2.194-0.094-6.463s0.019-4.781 0.094-6.463c0.069-1.563 0.331-2.406 0.55-2.969 0.288-0.744 0.638-1.281 1.194-1.838 0.563-0.563 1.094-0.906 1.838-1.2 0.563-0.219 1.412-0.481 2.969-0.55 1.681-0.075 2.188-0.094 6.463-0.094zM16 0c-4.344 0-4.887 0.019-6.594 0.094-1.7 0.075-2.869 0.35-3.881 0.744-1.056 0.412-1.95 0.956-2.837 1.85-0.894 0.888-1.438 1.781-1.85 2.831-0.394 1.019-0.669 2.181-0.744 3.881-0.075 1.713-0.094 2.256-0.094 6.6s0.019 4.887 0.094 6.594c0.075 1.7 0.35 2.869 0.744 3.881 0.413 1.056 0.956 1.95 1.85 2.837 0.887 0.887 1.781 1.438 2.831 1.844 1.019 0.394 2.181 0.669 3.881 0.744 1.706 0.075 2.25 0.094 6.594 0.094s4.888-0.019 6.594-0.094c1.7-0.075 2.869-0.35 3.881-0.744 1.050-0.406 1.944-0.956 2.831-1.844s1.438-1.781 1.844-2.831c0.394-1.019 0.669-2.181 0.744-3.881 0.075-1.706 0.094-2.25 0.094-6.594s-0.019-4.887-0.094-6.594c-0.075-1.7-0.35-2.869-0.744-3.881-0.394-1.063-0.938-1.956-1.831-2.844-0.887-0.887-1.781-1.438-2.831-1.844-1.019-0.394-2.181-0.669-3.881-0.744-1.712-0.081-2.256-0.1-6.6-0.1v0z"></path>
<path d="M16 7.781c-4.537 0-8.219 3.681-8.219 8.219s3.681 8.219 8.219 8.219 8.219-3.681 8.219-8.219c0-4.537-3.681-8.219-8.219-8.219zM16 21.331c-2.944 0-5.331-2.387-5.331-5.331s2.387-5.331 5.331-5.331c2.944 0 5.331 2.387 5.331 5.331s-2.387 5.331-5.331 5.331z"></path>
<path d="M26.462 7.456c0 1.060-0.859 1.919-1.919 1.919s-1.919-0.859-1.919-1.919c0-1.060 0.859-1.919 1.919-1.919s1.919 0.859 1.919 1.919z"></path>
</symbol>
<symbol id="icon-whatsapp" viewBox="0 0 32 32">
<path d="M27.281 4.65c-2.994-3-6.975-4.65-11.219-4.65-8.738 0-15.85 7.112-15.85 15.856 0 2.794 0.731 5.525 2.119 7.925l-2.25 8.219 8.406-2.206c2.319 1.262 4.925 1.931 7.575 1.931h0.006c0 0 0 0 0 0 8.738 0 15.856-7.113 15.856-15.856 0-4.238-1.65-8.219-4.644-11.219zM16.069 29.050v0c-2.369 0-4.688-0.637-6.713-1.837l-0.481-0.288-4.987 1.306 1.331-4.863-0.313-0.5c-1.325-2.094-2.019-4.519-2.019-7.012 0-7.269 5.912-13.181 13.188-13.181 3.519 0 6.831 1.375 9.319 3.862 2.488 2.494 3.856 5.8 3.856 9.325-0.006 7.275-5.919 13.188-13.181 13.188zM23.294 19.175c-0.394-0.2-2.344-1.156-2.706-1.288s-0.625-0.2-0.894 0.2c-0.262 0.394-1.025 1.288-1.256 1.556-0.231 0.262-0.462 0.3-0.856 0.1s-1.675-0.619-3.188-1.969c-1.175-1.050-1.975-2.35-2.206-2.744s-0.025-0.613 0.175-0.806c0.181-0.175 0.394-0.463 0.594-0.694s0.262-0.394 0.394-0.662c0.131-0.262 0.069-0.494-0.031-0.694s-0.894-2.15-1.219-2.944c-0.319-0.775-0.65-0.669-0.894-0.681-0.231-0.012-0.494-0.012-0.756-0.012s-0.694 0.1-1.056 0.494c-0.363 0.394-1.387 1.356-1.387 3.306s1.419 3.831 1.619 4.1c0.2 0.262 2.794 4.269 6.769 5.981 0.944 0.406 1.681 0.65 2.256 0.837 0.95 0.3 1.813 0.256 2.494 0.156 0.762-0.113 2.344-0.956 2.675-1.881s0.331-1.719 0.231-1.881c-0.094-0.175-0.356-0.275-0.756-0.475z"></path>
</symbol>
<symbol id="icon-telegram" viewBox="0 0 32 32">
<path d="M16 0c-8.838 0-16 7.162-16 16s7.162 16 16 16 16-7.163 16-16-7.163-16-16-16zM23.863 10.969l-2.625 12.369c-0.181 0.881-0.712 1.087-1.45 0.681l-4-2.956-1.919 1.869c-0.225 0.219-0.4 0.4-0.8 0.4-0.519 0-0.431-0.194-0.606-0.688l-1.363-4.475-3.956-1.231c-0.856-0.262-0.862-0.85 0.194-1.269l15.412-5.95c0.7-0.319 1.381 0.169 1.113 1.25z"></path>
</symbol>
<symbol id="icon-pharmachology" viewBox="0 0 32 32">
<path d="M17.4 6.688c-0.962 0.213-1.75 0.65-2.613 1.475-1.313 1.238-1.725 2.3-1.137 2.925 0.25 0.275 0.287 0.275 0.5 0.075 0.188-0.162 0.287-0.175 0.537-0.063 0.3 0.137 0.325 0.113 0.675-0.637 0.637-1.375 1.8-2.15 3.2-2.125 1.538 0.025 2.887 0.85 3.525 2.137 0.313 0.625 0.35 0.85 0.35 1.838-0.012 1.475-0.325 2.3-1.288 3.325-0.788 0.85-1.938 1.475-4.3 2.3l-1.35 0.475v1.45l1.112-0.3c5.25-1.413 7.663-3.925 7.488-7.825-0.038-0.863-0.113-1.2-0.438-1.9-0.738-1.55-2.337-2.775-4.125-3.15-1.012-0.213-1.125-0.213-2.137 0z"></path>
<path d="M7.925 13.275c0.25 1.537 1.987 3.037 4.1 3.537 0.438 0.1 0.938 0.212 1.137 0.25l0.338 0.063v3.988l0.35 0.175c0.188 0.1 0.463 0.225 0.625 0.262l0.275 0.087v-4.5l0.475-0.075c2.887-0.488 4.863-1.938 5.213-3.85l0.087-0.463h-12.688l0.088 0.525z"></path>
<path d="M12.313 19.425c-0.2 0.087-0.563 0.313-0.775 0.5-1.375 1.15 0.713 2.762 4.713 3.65 1.413 0.313 1.913 0.637 2.3 1.55l0.188 0.438 0.012-0.413c0-0.75-0.5-1.4-1.438-1.863-0.275-0.137-1.15-0.462-1.938-0.725-2.125-0.7-2.875-1.113-2.875-1.587 0-0.125 0.088-0.262 0.188-0.3 0.137-0.063 0.188-0.262 0.188-0.75 0-0.738-0.012-0.738-0.563-0.5z"></path>
<path d="M13.5 23.6c0 0.075-0.238 0.25-0.537 0.375-0.55 0.25-1.213 0.913-1.213 1.225 0 0.15 0.412 0.175 2.438 0.175 1.338 0 2.438-0.025 2.438-0.063 0-0.175-0.363-0.762-0.575-0.95-0.137-0.113-0.675-0.313-1.2-0.462s-1.050-0.313-1.15-0.35c-0.113-0.038-0.2-0.012-0.2 0.050z"></path>
</symbol>
<symbol id="icon-pharmac-drugs" viewBox="0 0 32 32">
<path d="M13.963 6.925c-0.425 0.4-0.463 0.563-0.5 2.663l-0.025 1.775-1.55-1c-0.85-0.563-1.725-1.037-1.938-1.063-0.613-0.1-1.075 0.3-1.925 1.65-1.225 1.95-1.162 2.1 1.588 3.862 0.963 0.613 1.75 1.15 1.75 1.188s-0.787 0.563-1.75 1.188c-2.75 1.762-2.813 1.913-1.6 3.863 0.863 1.363 1.313 1.75 1.963 1.65 0.225-0.038 1.1-0.512 1.938-1.063l1.525-1 0.063 1.962c0.063 2.012 0.15 2.4 0.625 2.65 0.3 0.163 3.45 0.163 3.75 0 0.475-0.25 0.563-0.637 0.625-2.65l0.063-1.962 1.525 1c0.837 0.55 1.712 1.025 1.938 1.063 0.65 0.1 1.1-0.288 1.962-1.65 1.212-1.95 1.15-2.1-1.6-3.863-0.962-0.625-1.75-1.15-1.75-1.188s0.788-0.575 1.75-1.188c2.75-1.762 2.813-1.912 1.587-3.863-0.85-1.35-1.313-1.75-1.925-1.65-0.212 0.025-1.087 0.5-1.938 1.063l-1.55 1-0.063-1.963c-0.038-1.075-0.113-2.063-0.175-2.175-0.238-0.5-0.625-0.6-2.363-0.6-1.6 0-1.688 0.013-2 0.3zM16.712 8.588c0.038 0.113 0.012 0.3-0.063 0.425-0.087 0.125-0.15 0.375-0.15 0.55 0 0.225-0.063 0.313-0.25 0.313-0.137 0-0.287-0.1-0.325-0.225-0.037-0.113-0.125-0.338-0.2-0.488-0.175-0.35-0.037-0.875 0.25-0.95 0.275-0.063 0.637 0.125 0.738 0.375zM16.962 10.662c0.762 0.838 0.788 1.938 0.087 2.787l-0.3 0.363 0.025-1.025c0.038-1.325-0.050-1.425-1.088-1.325-0.762 0.075-0.813 0.063-0.95-0.238-0.287-0.65 0.287-1.137 1.262-1.050 0.437 0.037 0.638 0.137 0.963 0.488zM16.5 13.95c0 1.2-0.038 2.175-0.087 2.175-0.063 0-0.2-0.087-0.313-0.175-0.2-0.15-0.225-0.412-0.225-2.175 0-1.813 0.025-2.012 0.225-2.063 0.113-0.025 0.25-0.025 0.313 0 0.050 0.025 0.087 1.037 0.087 2.238zM15.45 14.988c-0.113 0.125-0.2 0.287-0.2 0.363 0 0.238 0.725 0.988 1.363 1.4 0.725 0.462 1.012 0.85 1.012 1.375 0 0.425-0.375 1.238-0.675 1.488-0.175 0.15-0.2 0.087-0.2-0.625 0-0.438-0.050-0.863-0.1-0.938s-0.438-0.425-0.875-0.762c-1-0.813-1.287-1.175-1.363-1.787-0.088-0.637 0.137-1.175 0.7-1.637l0.45-0.375 0.037 0.65c0.025 0.45-0.025 0.7-0.15 0.85zM16.275 18.087c0.2 0.175 0.225 0.413 0.225 2.063 0 1.887-0.063 2.113-0.475 1.7-0.162-0.163-0.225-3.975-0.063-3.975 0.037 0 0.188 0.087 0.313 0.212zM15.588 20.863c-0.075 1.137 0.025 1.3 0.862 1.538 0.45 0.125 0.462 0.137 0.238 0.313-0.288 0.2-0.688 0.137-1.287-0.238-0.525-0.325-0.813-0.875-0.713-1.363 0.075-0.337 0.738-1.238 0.9-1.238 0.037 0 0.037 0.45 0 0.988zM16.425 23.238c0.125 0.2-0.075 0.525-0.288 0.488-0.113-0.025-0.213-0.163-0.238-0.325-0.037-0.2 0.025-0.275 0.212-0.275 0.137 0 0.275 0.050 0.313 0.113z"></path>
</symbol>
<symbol id="icon-patient-chart" viewBox="0 0 32 32">
<path d="M15.438 6.487c-0.85 0.213-1.5 0.838-1.738 1.65-0.15 0.525-0.188 0.55-0.688 0.588l-0.512 0.037v3.113h7v-3.113l-0.512-0.037c-0.5-0.037-0.538-0.063-0.688-0.588-0.35-1.188-1.663-1.95-2.863-1.65zM16.712 7.525c0.625 0.588 0.15 1.725-0.713 1.725-0.85 0-1.313-1.088-0.725-1.713 0.35-0.375 1.038-0.388 1.438-0.013z"></path>
<path d="M10.050 9.050c-0.713 0.325-1.075 0.762-1.287 1.512-0.188 0.675-0.188 12.563 0 13.225 0.15 0.55 0.738 1.262 1.287 1.563 0.35 0.188 0.95 0.212 5.95 0.212s5.6-0.025 5.95-0.212c0.55-0.3 1.137-1.012 1.288-1.563 0.188-0.663 0.188-12.55 0-13.225-0.075-0.275-0.25-0.662-0.4-0.863-0.337-0.488-1.375-0.95-2.113-0.95h-0.6v1.875h0.363c0.2 0 0.488 0.113 0.65 0.238l0.3 0.238v6c0 5.725-0.012 6.012-0.238 6.262-0.238 0.262-0.313 0.262-5.2 0.262s-4.963 0-5.2-0.262c-0.225-0.25-0.238-0.538-0.238-6.262v-6l0.3-0.238c0.162-0.125 0.45-0.238 0.65-0.238h0.363v-1.875h-0.588c-0.363 0-0.85 0.125-1.238 0.3z"></path>
<path d="M13.25 13.088c-0.3 0.4-0.55 0.75-0.575 0.762-0.012 0.025-0.213-0.088-0.425-0.25-0.387-0.287-0.4-0.287-0.575-0.050-0.1 0.137-0.175 0.287-0.175 0.338 0 0.088 1.162 0.988 1.287 0.988 0.050 0 1.3-1.625 1.512-1.975 0.088-0.15-0.213-0.512-0.438-0.525-0.050 0-0.325 0.325-0.613 0.713z"></path>
<path d="M11.5 15.125c0 0.075 1.588 0.125 4.5 0.125s4.5-0.050 4.5-0.125c0-0.075-1.587-0.125-4.5-0.125s-4.5 0.050-4.5 0.125z"></path>
<path d="M13.238 16.688c-0.287 0.375-0.55 0.688-0.575 0.688-0.037 0-0.225-0.1-0.412-0.212-0.3-0.175-0.387-0.175-0.55-0.050-0.113 0.1-0.2 0.238-0.2 0.313 0 0.175 1.225 1.113 1.35 1.025 0.050-0.025 0.425-0.512 0.838-1.087 0.7-0.962 0.725-1.025 0.5-1.188-0.125-0.1-0.275-0.175-0.338-0.175-0.050 0-0.325 0.313-0.613 0.688z"></path>
<path d="M11.5 18.75c0 0.075 1.588 0.125 4.5 0.125s4.5-0.050 4.5-0.125c0-0.075-1.587-0.125-4.5-0.125s-4.5 0.050-4.5 0.125z"></path>
<path d="M13.213 20.125l-0.55 0.75-0.325-0.25c-0.4-0.313-0.55-0.313-0.713-0.012-0.175 0.337-0.188 0.313 0.525 0.837l0.637 0.475 0.363-0.438c0.2-0.225 0.563-0.725 0.813-1.087 0.438-0.637 0.45-0.663 0.213-0.837-0.125-0.1-0.275-0.188-0.325-0.188-0.037 0-0.325 0.337-0.637 0.75z"></path>
<path d="M11.5 22.25c0 0.075 1.588 0.125 4.5 0.125s4.5-0.050 4.5-0.125c0-0.075-1.587-0.125-4.5-0.125s-4.5 0.050-4.5 0.125z"></path>
</symbol>
<symbol id="icon-nurse" viewBox="0 0 32 32">
<path d="M14.875 6.625c-1.162 0.175-2.625 0.713-4.25 1.525-2.213 1.113-2.175 0.912-0.787 3.675 0.775 1.525 1.225 2.3 1.45 2.412 0.262 0.162 0.488 0.15 1.787-0.063 1.863-0.3 3.688-0.3 5.575 0.012 1.375 0.213 1.475 0.213 1.775 0.012 0.225-0.137 0.688-0.925 1.425-2.4 1.35-2.713 1.413-2.512-0.975-3.7-2.5-1.25-4.412-1.713-6-1.475zM18 7.737c1.113 0.375 3.3 1.475 3.625 1.825l0.262 0.287-0.887 1.762c-0.488 0.975-0.975 1.813-1.075 1.85-0.113 0.037-0.85-0.012-1.663-0.137-1.825-0.25-3.037-0.25-4.775 0-0.75 0.113-1.5 0.162-1.65 0.125-0.338-0.088-2-3.162-1.938-3.6 0.063-0.475 2.3-1.675 4.162-2.25 1.025-0.3 2.813-0.25 3.938 0.138z"></path>
<path d="M15.338 8.7c-0.050 0.050-0.088 0.338-0.088 0.625v0.537l-1.188 0.075v1l1.175 0.075 0.075 1.175h1l0.075-1.175 1.175-0.075v-1l-1.175-0.075-0.038-0.588c-0.038-0.575-0.050-0.588-0.475-0.625-0.25-0.025-0.488 0-0.537 0.050z"></path>
<path d="M21.2 14.45c-0.038 0.1-0.325 0.3-0.65 0.438-0.563 0.25-0.6 0.25-1.7 0.050-1.45-0.262-3.35-0.387-3.35-0.225 0 0.063 0.338 0.45 0.75 0.838 0.913 0.875 2 1.4 3.238 1.575 0.512 0.075 0.938 0.137 0.95 0.163 0 0.012 0.163 0.262 0.35 0.55 0.387 0.613 0.413 1.038 0.15 2.1-0.525 2.038-1.925 3.875-3.387 4.438-0.988 0.387-2.113 0.387-3.113 0-1.912-0.738-3.475-3.337-3.588-6l-0.037-0.8 0.825-0.45c1.088-0.6 2.6-1.65 3.050-2.125l0.375-0.387-0.563 0.075c-0.313 0.037-1.075 0.162-1.688 0.262-1.225 0.2-1.625 0.137-2.137-0.338l-0.275-0.25-0.262 0.375c-0.438 0.613-0.725 1.35-1.125 2.95-0.213 0.825-0.525 1.887-0.7 2.375-0.513 1.462-0.362 2.875 0.425 4.075 0.563 0.85 1.238 1.175 2.388 1.175 0.725-0.012 1.088-0.087 1.613-0.325l0.675-0.3 0.637 0.313c0.563 0.275 0.8 0.313 1.95 0.313 1.113 0 1.4-0.050 1.887-0.288l0.563-0.288 0.75 0.35c1.375 0.625 2.625 0.413 3.725-0.663 0.775-0.762 1.012-1.413 1-2.8 0-1.275 0.012-1.238-1.212-4.375-0.512-1.35-1.288-3-1.387-3-0.025 0-0.087 0.088-0.125 0.2z"></path>
</symbol>
<symbol id="icon-microbiology" viewBox="0 0 32 32">
<path d="M20.525 6.325c-0.15 0.1-0.275 0.263-0.275 0.338 0 0.188 1.262 1.462 1.45 1.462 0.075 0 0.238-0.113 0.35-0.237 0.163-0.188 0.188-0.3 0.087-0.475-0.1-0.213-1.2-1.288-1.3-1.288-0.012 0-0.163 0.088-0.313 0.2z"></path>
<path d="M15.475 10.85c-2.638 2.625-3.6 3.675-3.6 3.875 0 0.188 0.262 0.575 0.713 1.037 1.050 1.1 1.125 1.075 2.938-0.725l1.463-1.45-0.212-0.387c-0.113-0.225-0.2-0.688-0.2-1.075-0.012-1.825 1.8-3.088 3.5-2.438 0.625 0.238 0.85 0.15 1.063-0.412 0.15-0.387-0.087-0.838-0.813-1.5-0.962-0.888-0.788-1-4.85 3.075z"></path>
<path d="M18.587 10.3c-0.887 0.325-1.337 0.95-1.337 1.85 0 0.95 0.825 1.85 1.688 1.85 0.575 0 1.738 1.262 2.012 2.188 0.462 1.625-0.413 3.337-2.2 4.25-1.262 0.637-1.65 0.688-5.738 0.688l-3.825 0.012 0.613 0.563c0.825 0.762 2.613 1.613 3.938 1.875 1.262 0.25 3.4 0.188 4.575-0.137 3.012-0.837 5.337-3.275 5.525-5.813 0.137-1.85-0.462-3.4-1.85-4.775-0.475-0.463-0.9-1-0.938-1.188-0.262-1.088-1.425-1.725-2.462-1.363z"></path>
<path d="M11.3 15.762c-0.088 0.15 1.050 1.363 1.287 1.363 0.313 0 0.15-0.325-0.438-0.913-0.637-0.625-0.713-0.662-0.85-0.45z"></path>
<path d="M8.287 19.087c-0.213 0.075-0.213 1.063-0.012 1.262 0.213 0.212 6.862 0.212 7.075 0 0.2-0.2 0.2-1 0-1.2-0.113-0.113-1.063-0.15-3.525-0.137-1.863 0-3.463 0.038-3.537 0.075z"></path>
<path d="M18.25 24.125c-1.5 0.413-3.575 0.438-4.95 0.050-0.325-0.087-0.9 0.375-1.238 1.012-0.213 0.387-0.225 0.462-0.063 0.563 0.113 0.075 1.9 0.113 4.438 0.087 3.925-0.025 4.25-0.038 4.288-0.238 0.063-0.3-0.4-0.925-1.012-1.363-0.275-0.2-0.538-0.363-0.575-0.35s-0.438 0.113-0.887 0.238z"></path>
</symbol>
<symbol id="icon-medicine" viewBox="0 0 32 32">
<path d="M14.025 7.313c-0.688 0.3-0.775 0.713-0.775 3.5v2.438h-2.438c-3.612 0-3.688 0.050-3.688 2.75s0.075 2.75 3.688 2.75h2.438v2.462c0 3.613 0.037 3.663 2.75 3.663s2.75-0.050 2.75-3.663v-2.462h2.438c3.613 0 3.688-0.050 3.688-2.75s-0.075-2.75-3.688-2.75h-2.438v-2.438c0-2.825-0.087-3.2-0.8-3.5-0.6-0.25-3.35-0.25-3.925 0z"></path>
</symbol>
<symbol id="icon-ambulance" viewBox="0 0 32 32">
<path d="M16.025 8.213c-0.25 0.1-0.525 0.738-0.525 1.225v0.438h2.125v-0.6c0-0.475-0.063-0.662-0.288-0.875-0.275-0.262-0.913-0.35-1.313-0.188z"></path>
<path d="M7.487 10.613l-0.3 0.238-0.125 8.2-0.313 0.075c-0.287 0.063-0.313 0.137-0.313 0.75 0 0.65 0.013 0.688 0.338 0.725 0.225 0.025 0.35 0.137 0.4 0.337 0.1 0.387 0.675 0.688 1.313 0.688 0.45 0 0.5-0.038 0.637-0.438 0.438-1.313 2.025-2.050 3.287-1.525 0.525 0.225 1.287 1.087 1.4 1.575l0.088 0.387h4.325l0.15-0.438c0.637-1.925 3.313-2.275 4.387-0.587 0.2 0.313 0.363 0.675 0.363 0.8 0 0.188 0.1 0.225 0.625 0.225 0.512 0 0.7-0.063 0.938-0.313 0.175-0.163 0.313-0.363 0.313-0.438s0.137-0.188 0.313-0.25c0.275-0.1 0.313-0.188 0.313-0.75s-0.038-0.65-0.313-0.75c-0.313-0.113-0.313-0.125-0.313-1.775v-1.65l-5.325-5.325h-5.95c-5.662 0-5.963 0.012-6.237 0.238zM21.525 13.463c0.95 0.938 1.725 1.762 1.725 1.813 0 0.063-1 0.088-2.212 0.075l-2.225-0.037-0.038-1.787-0.038-1.775h0.525c0.512 0 0.587 0.063 2.262 1.713zM14.6 12.325c1.9 0.787 2.362 3.238 0.887 4.637-1.4 1.325-3.612 0.875-4.438-0.887-0.512-1.088-0.338-2.113 0.5-3.037 0.787-0.85 2.025-1.15 3.050-0.713z"></path>
<path d="M13.088 13.075c-0.050 0.050-0.088 0.363-0.088 0.688v0.6l-1.313 0.075v1l1.3 0.075 0.075 1.3h1l0.125-1.25 1.25-0.125v-1l-1.25-0.125-0.063-0.625c-0.063-0.613-0.075-0.625-0.5-0.662-0.25-0.025-0.488 0-0.537 0.050z"></path>
<path d="M10.363 20.3c-1.175 0.8-1.15 2.6 0.037 3.325 0.55 0.337 1.525 0.337 2.075 0 1.213-0.75 1.213-2.625 0-3.375-0.6-0.363-1.537-0.337-2.113 0.050zM11.975 21.4c0.425 0.55 0.125 1.25-0.537 1.25-0.613 0-0.925-0.775-0.488-1.2 0.238-0.238 0.85-0.262 1.025-0.050z"></path>
<path d="M19.75 20.238c-0.55 0.288-1 1.050-1 1.675-0.012 1.988 2.45 2.7 3.675 1.050 0.188-0.25 0.25-0.538 0.25-1.025 0-0.762-0.238-1.188-0.925-1.663-0.512-0.35-1.387-0.363-2-0.038zM21.325 21.563c0.175 0.262 0.188 0.387 0.063 0.637-0.325 0.725-1.375 0.538-1.387-0.25 0-0.675 0.95-0.95 1.325-0.387z"></path>
</symbol>
<symbol id="icon-doctor" viewBox="0 0 32 32">
<path d="M14.875 6.688c-1.363 0.388-2.287 1.050-2.787 2-0.387 0.738-0.425 2.287-0.1 3.863 0.55 2.662 1.925 4.537 3.637 4.95 0.512 0.125 0.725 0.113 1.325-0.063 1.875-0.538 3.6-3.563 3.587-6.262 0-1.938-0.837-3.525-2.2-4.225-0.887-0.45-2.363-0.563-3.463-0.263zM18.3 10.063c0.488 0.188 0.962 0.363 1.050 0.387 0.275 0.075 0.525 0.875 0.525 1.65 0 1.162-0.675 2.838-1.55 3.862-0.637 0.725-1.663 1.225-2.338 1.113-1.475-0.238-2.763-1.688-3.3-3.713-0.25-0.925-0.238-1.613 0.063-2.4 0.238-0.637 0.275-0.675 0.863-0.825 0.338-0.088 1.012-0.387 1.512-0.688l0.913-0.537 0.688 0.412c0.375 0.225 1.087 0.563 1.575 0.738z"></path>
<path d="M12 17.050c-1.662 0.575-3.137 1.35-3.6 1.875-0.525 0.613-0.825 1.663-0.725 2.563 0.3 2.575 3.35 4.012 8.512 4.012 2.55 0 4.45-0.325 5.875-0.988 0.95-0.438 1.475-0.887 1.913-1.625 0.288-0.488 0.337-0.712 0.337-1.512 0-0.813-0.063-1.063-0.4-1.762-0.425-0.85-0.738-1.137-1.913-1.738-0.7-0.363-2.75-1.125-3.012-1.125-0.425 0-0.712 0.538-0.85 1.625-0.137 1.063-0.75 3.313-0.863 3.188-0.038-0.038-0.2-0.587-0.363-1.212l-0.3-1.163 0.262-0.512c0.137-0.288 0.25-0.55 0.25-0.587 0-0.025-0.212-0.012-0.462 0.050-0.275 0.063-0.7 0.050-1.025-0.025-0.3-0.063-0.563-0.1-0.588-0.075s0.050 0.238 0.175 0.475c0.213 0.4 0.213 0.475 0.012 1.175-0.113 0.413-0.262 0.95-0.325 1.188l-0.125 0.438-0.2-0.887c-0.113-0.5-0.25-1.375-0.287-1.95-0.075-0.875-0.125-1.087-0.338-1.212-0.25-0.163-0.25-0.15-0.162 1.038 0.1 1.55 0.363 2.738 0.825 3.913 0.35 0.875 1.338 2.538 1.5 2.538 0.125 0 0.837-1.25 1.425-2.5 0.65-1.375 1.012-2.663 1.137-4.038 0.050-0.525 0.137-0.962 0.2-0.962 0.3 0 2.863 1.050 3.387 1.387 1.113 0.712 1.663 2.163 1.3 3.4-0.6 2.050-3.663 3.125-8.262 2.925-4.125-0.188-6.45-1.3-6.938-3.337-0.125-0.512-0.113-0.725 0.050-1.3 0.387-1.3 1.175-1.887 3.775-2.775 0.75-0.262 1.387-0.488 1.412-0.5 0.063-0.050-0.238-0.425-0.35-0.425-0.037 0-0.613 0.188-1.262 0.425z"></path>
<path d="M20.212 19.575c-0.050 0.050-0.087 0.337-0.087 0.625v0.538l-1.188 0.075v1l1.175 0.075 0.075 1.175h1l0.075-1.175 1.175-0.075v-1l-1.175-0.075-0.038-0.587c-0.038-0.575-0.050-0.587-0.475-0.625-0.25-0.025-0.488 0-0.538 0.050z"></path>
</symbol>
</defs>
</svg>
