<svg aria-hidden="true" style="position: absolute; width: 0; height: 0; overflow: hidden;" version="1.1" xmlns="http://www.w3.org/2000/svg" xmlns:xlink="http://www.w3.org/1999/xlink">
<defs>
<symbol id="icon-pharmachology" viewBox="0 0 32 32">
<path d="M17.4 6.688c-0.962 0.213-1.75 0.65-2.613 1.475-1.313 1.238-1.725 2.3-1.137 2.925 0.25 0.275 0.287 0.275 0.5 0.075 0.188-0.162 0.287-0.175 0.537-0.063 0.3 0.137 0.325 0.113 0.675-0.637 0.637-1.375 1.8-2.15 3.2-2.125 1.538 0.025 2.887 0.85 3.525 2.137 0.313 0.625 0.35 0.85 0.35 1.838-0.012 1.475-0.325 2.3-1.288 3.325-0.788 0.85-1.938 1.475-4.3 2.3l-1.35 0.475v1.45l1.112-0.3c5.25-1.413 7.663-3.925 7.488-7.825-0.038-0.863-0.113-1.2-0.438-1.9-0.738-1.55-2.337-2.775-4.125-3.15-1.012-0.213-1.125-0.213-2.137 0z"></path>
<path d="M7.925 13.275c0.25 1.537 1.987 3.037 4.1 3.537 0.438 0.1 0.938 0.212 1.137 0.25l0.338 0.063v3.988l0.35 0.175c0.188 0.1 0.463 0.225 0.625 0.262l0.275 0.087v-4.5l0.475-0.075c2.887-0.488 4.863-1.938 5.213-3.85l0.087-0.463h-12.688l0.088 0.525z"></path>
<path d="M12.313 19.425c-0.2 0.087-0.563 0.313-0.775 0.5-1.375 1.15 0.713 2.762 4.713 3.65 1.413 0.313 1.913 0.637 2.3 1.55l0.188 0.438 0.012-0.413c0-0.75-0.5-1.4-1.438-1.863-0.275-0.137-1.15-0.462-1.938-0.725-2.125-0.7-2.875-1.113-2.875-1.587 0-0.125 0.088-0.262 0.188-0.3 0.137-0.063 0.188-0.262 0.188-0.75 0-0.738-0.012-0.738-0.563-0.5z"></path>
<path d="M13.5 23.6c0 0.075-0.238 0.25-0.537 0.375-0.55 0.25-1.213 0.913-1.213 1.225 0 0.15 0.412 0.175 2.438 0.175 1.338 0 2.438-0.025 2.438-0.063 0-0.175-0.363-0.762-0.575-0.95-0.137-0.113-0.675-0.313-1.2-0.462s-1.050-0.313-1.15-0.35c-0.113-0.038-0.2-0.012-0.2 0.050z"></path>
</symbol>
<symbol id="icon-pharmac-drugs" viewBox="0 0 32 32">
<path d="M13.963 6.925c-0.425 0.4-0.463 0.563-0.5 2.663l-0.025 1.775-1.55-1c-0.85-0.563-1.725-1.037-1.938-1.063-0.613-0.1-1.075 0.3-1.925 1.65-1.225 1.95-1.162 2.1 1.588 3.862 0.963 0.613 1.75 1.15 1.75 1.188s-0.787 0.563-1.75 1.188c-2.75 1.762-2.813 1.913-1.6 3.863 0.863 1.363 1.313 1.75 1.963 1.65 0.225-0.038 1.1-0.512 1.938-1.063l1.525-1 0.063 1.962c0.063 2.012 0.15 2.4 0.625 2.65 0.3 0.163 3.45 0.163 3.75 0 0.475-0.25 0.563-0.637 0.625-2.65l0.063-1.962 1.525 1c0.837 0.55 1.712 1.025 1.938 1.063 0.65 0.1 1.1-0.288 1.962-1.65 1.212-1.95 1.15-2.1-1.6-3.863-0.962-0.625-1.75-1.15-1.75-1.188s0.788-0.575 1.75-1.188c2.75-1.762 2.813-1.912 1.587-3.863-0.85-1.35-1.313-1.75-1.925-1.65-0.212 0.025-1.087 0.5-1.938 1.063l-1.55 1-0.063-1.963c-0.038-1.075-0.113-2.063-0.175-2.175-0.238-0.5-0.625-0.6-2.363-0.6-1.6 0-1.688 0.013-2 0.3zM16.712 8.588c0.038 0.113 0.012 0.3-0.063 0.425-0.087 0.125-0.15 0.375-0.15 0.55 0 0.225-0.063 0.313-0.25 0.313-0.137 0-0.287-0.1-0.325-0.225-0.037-0.113-0.125-0.338-0.2-0.488-0.175-0.35-0.037-0.875 0.25-0.95 0.275-0.063 0.637 0.125 0.738 0.375zM16.962 10.662c0.762 0.838 0.788 1.938 0.087 2.787l-0.3 0.363 0.025-1.025c0.038-1.325-0.050-1.425-1.088-1.325-0.762 0.075-0.813 0.063-0.95-0.238-0.287-0.65 0.287-1.137 1.262-1.050 0.437 0.037 0.638 0.137 0.963 0.488zM16.5 13.95c0 1.2-0.038 2.175-0.087 2.175-0.063 0-0.2-0.087-0.313-0.175-0.2-0.15-0.225-0.412-0.225-2.175 0-1.813 0.025-2.012 0.225-2.063 0.113-0.025 0.25-0.025 0.313 0 0.050 0.025 0.087 1.037 0.087 2.238zM15.45 14.988c-0.113 0.125-0.2 0.287-0.2 0.363 0 0.238 0.725 0.988 1.363 1.4 0.725 0.462 1.012 0.85 1.012 1.375 0 0.425-0.375 1.238-0.675 1.488-0.175 0.15-0.2 0.087-0.2-0.625 0-0.438-0.050-0.863-0.1-0.938s-0.438-0.425-0.875-0.762c-1-0.813-1.287-1.175-1.363-1.787-0.088-0.637 0.137-1.175 0.7-1.637l0.45-0.375 0.037 0.65c0.025 0.45-0.025 0.7-0.15 0.85zM16.275 18.087c0.2 0.175 0.225 0.413 0.225 2.063 0 1.887-0.063 2.113-0.475 1.7-0.162-0.163-0.225-3.975-0.063-3.975 0.037 0 0.188 0.087 0.313 0.212zM15.588 20.863c-0.075 1.137 0.025 1.3 0.862 1.538 0.45 0.125 0.462 0.137 0.238 0.313-0.288 0.2-0.688 0.137-1.287-0.238-0.525-0.325-0.813-0.875-0.713-1.363 0.075-0.337 0.738-1.238 0.9-1.238 0.037 0 0.037 0.45 0 0.988zM16.425 23.238c0.125 0.2-0.075 0.525-0.288 0.488-0.113-0.025-0.213-0.163-0.238-0.325-0.037-0.2 0.025-0.275 0.212-0.275 0.137 0 0.275 0.050 0.313 0.113z"></path>
</symbol>
<symbol id="icon-patient-chart" viewBox="0 0 32 32">
<path d="M15.438 6.487c-0.85 0.213-1.5 0.838-1.738 1.65-0.15 0.525-0.188 0.55-0.688 0.588l-0.512 0.037v3.113h7v-3.113l-0.512-0.037c-0.5-0.037-0.538-0.063-0.688-0.588-0.35-1.188-1.663-1.95-2.863-1.65zM16.712 7.525c0.625 0.588 0.15 1.725-0.713 1.725-0.85 0-1.313-1.088-0.725-1.713 0.35-0.375 1.038-0.388 1.438-0.013z"></path>
<path d="M10.050 9.050c-0.713 0.325-1.075 0.762-1.287 1.512-0.188 0.675-0.188 12.563 0 13.225 0.15 0.55 0.738 1.262 1.287 1.563 0.35 0.188 0.95 0.212 5.95 0.212s5.6-0.025 5.95-0.212c0.55-0.3 1.137-1.012 1.288-1.563 0.188-0.663 0.188-12.55 0-13.225-0.075-0.275-0.25-0.662-0.4-0.863-0.337-0.488-1.375-0.95-2.113-0.95h-0.6v1.875h0.363c0.2 0 0.488 0.113 0.65 0.238l0.3 0.238v6c0 5.725-0.012 6.012-0.238 6.262-0.238 0.262-0.313 0.262-5.2 0.262s-4.963 0-5.2-0.262c-0.225-0.25-0.238-0.538-0.238-6.262v-6l0.3-0.238c0.162-0.125 0.45-0.238 0.65-0.238h0.363v-1.875h-0.588c-0.363 0-0.85 0.125-1.238 0.3z"></path>
<path d="M13.25 13.088c-0.3 0.4-0.55 0.75-0.575 0.762-0.012 0.025-0.213-0.088-0.425-0.25-0.387-0.287-0.4-0.287-0.575-0.050-0.1 0.137-0.175 0.287-0.175 0.338 0 0.088 1.162 0.988 1.287 0.988 0.050 0 1.3-1.625 1.512-1.975 0.088-0.15-0.213-0.512-0.438-0.525-0.050 0-0.325 0.325-0.613 0.713z"></path>
<path d="M11.5 15.125c0 0.075 1.588 0.125 4.5 0.125s4.5-0.050 4.5-0.125c0-0.075-1.587-0.125-4.5-0.125s-4.5 0.050-4.5 0.125z"></path>
<path d="M13.238 16.688c-0.287 0.375-0.55 0.688-0.575 0.688-0.037 0-0.225-0.1-0.412-0.212-0.3-0.175-0.387-0.175-0.55-0.050-0.113 0.1-0.2 0.238-0.2 0.313 0 0.175 1.225 1.113 1.35 1.025 0.050-0.025 0.425-0.512 0.838-1.087 0.7-0.962 0.725-1.025 0.5-1.188-0.125-0.1-0.275-0.175-0.338-0.175-0.050 0-0.325 0.313-0.613 0.688z"></path>
<path d="M11.5 18.75c0 0.075 1.588 0.125 4.5 0.125s4.5-0.050 4.5-0.125c0-0.075-1.587-0.125-4.5-0.125s-4.5 0.050-4.5 0.125z"></path>
<path d="M13.213 20.125l-0.55 0.75-0.325-0.25c-0.4-0.313-0.55-0.313-0.713-0.012-0.175 0.337-0.188 0.313 0.525 0.837l0.637 0.475 0.363-0.438c0.2-0.225 0.563-0.725 0.813-1.087 0.438-0.637 0.45-0.663 0.213-0.837-0.125-0.1-0.275-0.188-0.325-0.188-0.037 0-0.325 0.337-0.637 0.75z"></path>
<path d="M11.5 22.25c0 0.075 1.588 0.125 4.5 0.125s4.5-0.050 4.5-0.125c0-0.075-1.587-0.125-4.5-0.125s-4.5 0.050-4.5 0.125z"></path>
</symbol>
<symbol id="icon-nurse" viewBox="0 0 32 32">
<path d="M14.875 6.625c-1.162 0.175-2.625 0.713-4.25 1.525-2.213 1.113-2.175 0.912-0.787 3.675 0.775 1.525 1.225 2.3 1.45 2.412 0.262 0.162 0.488 0.15 1.787-0.063 1.863-0.3 3.688-0.3 5.575 0.012 1.375 0.213 1.475 0.213 1.775 0.012 0.225-0.137 0.688-0.925 1.425-2.4 1.35-2.713 1.413-2.512-0.975-3.7-2.5-1.25-4.412-1.713-6-1.475zM18 7.737c1.113 0.375 3.3 1.475 3.625 1.825l0.262 0.287-0.887 1.762c-0.488 0.975-0.975 1.813-1.075 1.85-0.113 0.037-0.85-0.012-1.663-0.137-1.825-0.25-3.037-0.25-4.775 0-0.75 0.113-1.5 0.162-1.65 0.125-0.338-0.088-2-3.162-1.938-3.6 0.063-0.475 2.3-1.675 4.162-2.25 1.025-0.3 2.813-0.25 3.938 0.138z"></path>
<path d="M15.338 8.7c-0.050 0.050-0.088 0.338-0.088 0.625v0.537l-1.188 0.075v1l1.175 0.075 0.075 1.175h1l0.075-1.175 1.175-0.075v-1l-1.175-0.075-0.038-0.588c-0.038-0.575-0.050-0.588-0.475-0.625-0.25-0.025-0.488 0-0.537 0.050z"></path>
<path d="M21.2 14.45c-0.038 0.1-0.325 0.3-0.65 0.438-0.563 0.25-0.6 0.25-1.7 0.050-1.45-0.262-3.35-0.387-3.35-0.225 0 0.063 0.338 0.45 0.75 0.838 0.913 0.875 2 1.4 3.238 1.575 0.512 0.075 0.938 0.137 0.95 0.163 0 0.012 0.163 0.262 0.35 0.55 0.387 0.613 0.413 1.038 0.15 2.1-0.525 2.038-1.925 3.875-3.387 4.438-0.988 0.387-2.113 0.387-3.113 0-1.912-0.738-3.475-3.337-3.588-6l-0.037-0.8 0.825-0.45c1.088-0.6 2.6-1.65 3.050-2.125l0.375-0.387-0.563 0.075c-0.313 0.037-1.075 0.162-1.688 0.262-1.225 0.2-1.625 0.137-2.137-0.338l-0.275-0.25-0.262 0.375c-0.438 0.613-0.725 1.35-1.125 2.95-0.213 0.825-0.525 1.887-0.7 2.375-0.513 1.462-0.362 2.875 0.425 4.075 0.563 0.85 1.238 1.175 2.388 1.175 0.725-0.012 1.088-0.087 1.613-0.325l0.675-0.3 0.637 0.313c0.563 0.275 0.8 0.313 1.95 0.313 1.113 0 1.4-0.050 1.887-0.288l0.563-0.288 0.75 0.35c1.375 0.625 2.625 0.413 3.725-0.663 0.775-0.762 1.012-1.413 1-2.8 0-1.275 0.012-1.238-1.212-4.375-0.512-1.35-1.288-3-1.387-3-0.025 0-0.087 0.088-0.125 0.2z"></path>
</symbol>
<symbol id="icon-microbiology" viewBox="0 0 32 32">
<path d="M20.525 6.325c-0.15 0.1-0.275 0.263-0.275 0.338 0 0.188 1.262 1.462 1.45 1.462 0.075 0 0.238-0.113 0.35-0.237 0.163-0.188 0.188-0.3 0.087-0.475-0.1-0.213-1.2-1.288-1.3-1.288-0.012 0-0.163 0.088-0.313 0.2z"></path>
<path d="M15.475 10.85c-2.638 2.625-3.6 3.675-3.6 3.875 0 0.188 0.262 0.575 0.713 1.037 1.050 1.1 1.125 1.075 2.938-0.725l1.463-1.45-0.212-0.387c-0.113-0.225-0.2-0.688-0.2-1.075-0.012-1.825 1.8-3.088 3.5-2.438 0.625 0.238 0.85 0.15 1.063-0.412 0.15-0.387-0.087-0.838-0.813-1.5-0.962-0.888-0.788-1-4.85 3.075z"></path>
<path d="M18.587 10.3c-0.887 0.325-1.337 0.95-1.337 1.85 0 0.95 0.825 1.85 1.688 1.85 0.575 0 1.738 1.262 2.012 2.188 0.462 1.625-0.413 3.337-2.2 4.25-1.262 0.637-1.65 0.688-5.738 0.688l-3.825 0.012 0.613 0.563c0.825 0.762 2.613 1.613 3.938 1.875 1.262 0.25 3.4 0.188 4.575-0.137 3.012-0.837 5.337-3.275 5.525-5.813 0.137-1.85-0.462-3.4-1.85-4.775-0.475-0.463-0.9-1-0.938-1.188-0.262-1.088-1.425-1.725-2.462-1.363z"></path>
<path d="M11.3 15.762c-0.088 0.15 1.050 1.363 1.287 1.363 0.313 0 0.15-0.325-0.438-0.913-0.637-0.625-0.713-0.662-0.85-0.45z"></path>
<path d="M8.287 19.087c-0.213 0.075-0.213 1.063-0.012 1.262 0.213 0.212 6.862 0.212 7.075 0 0.2-0.2 0.2-1 0-1.2-0.113-0.113-1.063-0.15-3.525-0.137-1.863 0-3.463 0.038-3.537 0.075z"></path>
<path d="M18.25 24.125c-1.5 0.413-3.575 0.438-4.95 0.050-0.325-0.087-0.9 0.375-1.238 1.012-0.213 0.387-0.225 0.462-0.063 0.563 0.113 0.075 1.9 0.113 4.438 0.087 3.925-0.025 4.25-0.038 4.288-0.238 0.063-0.3-0.4-0.925-1.012-1.363-0.275-0.2-0.538-0.363-0.575-0.35s-0.438 0.113-0.887 0.238z"></path>
</symbol>
<symbol id="icon-medicine" viewBox="0 0 32 32">
<path d="M14.025 7.313c-0.688 0.3-0.775 0.713-0.775 3.5v2.438h-2.438c-3.612 0-3.688 0.050-3.688 2.75s0.075 2.75 3.688 2.75h2.438v2.462c0 3.613 0.037 3.663 2.75 3.663s2.75-0.050 2.75-3.663v-2.462h2.438c3.613 0 3.688-0.050 3.688-2.75s-0.075-2.75-3.688-2.75h-2.438v-2.438c0-2.825-0.087-3.2-0.8-3.5-0.6-0.25-3.35-0.25-3.925 0z"></path>
</symbol>
<symbol id="icon-ambulance" viewBox="0 0 32 32">
<path d="M16.025 8.213c-0.25 0.1-0.525 0.738-0.525 1.225v0.438h2.125v-0.6c0-0.475-0.063-0.662-0.288-0.875-0.275-0.262-0.913-0.35-1.313-0.188z"></path>
<path d="M7.487 10.613l-0.3 0.238-0.125 8.2-0.313 0.075c-0.287 0.063-0.313 0.137-0.313 0.75 0 0.65 0.013 0.688 0.338 0.725 0.225 0.025 0.35 0.137 0.4 0.337 0.1 0.387 0.675 0.688 1.313 0.688 0.45 0 0.5-0.038 0.637-0.438 0.438-1.313 2.025-2.050 3.287-1.525 0.525 0.225 1.287 1.087 1.4 1.575l0.088 0.387h4.325l0.15-0.438c0.637-1.925 3.313-2.275 4.387-0.587 0.2 0.313 0.363 0.675 0.363 0.8 0 0.188 0.1 0.225 0.625 0.225 0.512 0 0.7-0.063 0.938-0.313 0.175-0.163 0.313-0.363 0.313-0.438s0.137-0.188 0.313-0.25c0.275-0.1 0.313-0.188 0.313-0.75s-0.038-0.65-0.313-0.75c-0.313-0.113-0.313-0.125-0.313-1.775v-1.65l-5.325-5.325h-5.95c-5.662 0-5.963 0.012-6.237 0.238zM21.525 13.463c0.95 0.938 1.725 1.762 1.725 1.813 0 0.063-1 0.088-2.212 0.075l-2.225-0.037-0.038-1.787-0.038-1.775h0.525c0.512 0 0.587 0.063 2.262 1.713zM14.6 12.325c1.9 0.787 2.362 3.238 0.887 4.637-1.4 1.325-3.612 0.875-4.438-0.887-0.512-1.088-0.338-2.113 0.5-3.037 0.787-0.85 2.025-1.15 3.050-0.713z"></path>
<path d="M13.088 13.075c-0.050 0.050-0.088 0.363-0.088 0.688v0.6l-1.313 0.075v1l1.3 0.075 0.075 1.3h1l0.125-1.25 1.25-0.125v-1l-1.25-0.125-0.063-0.625c-0.063-0.613-0.075-0.625-0.5-0.662-0.25-0.025-0.488 0-0.537 0.050z"></path>
<path d="M10.363 20.3c-1.175 0.8-1.15 2.6 0.037 3.325 0.55 0.337 1.525 0.337 2.075 0 1.213-0.75 1.213-2.625 0-3.375-0.6-0.363-1.537-0.337-2.113 0.050zM11.975 21.4c0.425 0.55 0.125 1.25-0.537 1.25-0.613 0-0.925-0.775-0.488-1.2 0.238-0.238 0.85-0.262 1.025-0.050z"></path>
<path d="M19.75 20.238c-0.55 0.288-1 1.050-1 1.675-0.012 1.988 2.45 2.7 3.675 1.050 0.188-0.25 0.25-0.538 0.25-1.025 0-0.762-0.238-1.188-0.925-1.663-0.512-0.35-1.387-0.363-2-0.038zM21.325 21.563c0.175 0.262 0.188 0.387 0.063 0.637-0.325 0.725-1.375 0.538-1.387-0.25 0-0.675 0.95-0.95 1.325-0.387z"></path>
</symbol>
<symbol id="icon-doctor" viewBox="0 0 32 32">
<path d="M14.875 6.688c-1.363 0.388-2.287 1.050-2.787 2-0.387 0.738-0.425 2.287-0.1 3.863 0.55 2.662 1.925 4.537 3.637 4.95 0.512 0.125 0.725 0.113 1.325-0.063 1.875-0.538 3.6-3.563 3.587-6.262 0-1.938-0.837-3.525-2.2-4.225-0.887-0.45-2.363-0.563-3.463-0.263zM18.3 10.063c0.488 0.188 0.962 0.363 1.050 0.387 0.275 0.075 0.525 0.875 0.525 1.65 0 1.162-0.675 2.838-1.55 3.862-0.637 0.725-1.663 1.225-2.338 1.113-1.475-0.238-2.763-1.688-3.3-3.713-0.25-0.925-0.238-1.613 0.063-2.4 0.238-0.637 0.275-0.675 0.863-0.825 0.338-0.088 1.012-0.387 1.512-0.688l0.913-0.537 0.688 0.412c0.375 0.225 1.087 0.563 1.575 0.738z"></path>
<path d="M12 17.050c-1.662 0.575-3.137 1.35-3.6 1.875-0.525 0.613-0.825 1.663-0.725 2.563 0.3 2.575 3.35 4.012 8.512 4.012 2.55 0 4.45-0.325 5.875-0.988 0.95-0.438 1.475-0.887 1.913-1.625 0.288-0.488 0.337-0.712 0.337-1.512 0-0.813-0.063-1.063-0.4-1.762-0.425-0.85-0.738-1.137-1.913-1.738-0.7-0.363-2.75-1.125-3.012-1.125-0.425 0-0.712 0.538-0.85 1.625-0.137 1.063-0.75 3.313-0.863 3.188-0.038-0.038-0.2-0.587-0.363-1.212l-0.3-1.163 0.262-0.512c0.137-0.288 0.25-0.55 0.25-0.587 0-0.025-0.212-0.012-0.462 0.050-0.275 0.063-0.7 0.050-1.025-0.025-0.3-0.063-0.563-0.1-0.588-0.075s0.050 0.238 0.175 0.475c0.213 0.4 0.213 0.475 0.012 1.175-0.113 0.413-0.262 0.95-0.325 1.188l-0.125 0.438-0.2-0.887c-0.113-0.5-0.25-1.375-0.287-1.95-0.075-0.875-0.125-1.087-0.338-1.212-0.25-0.163-0.25-0.15-0.162 1.038 0.1 1.55 0.363 2.738 0.825 3.913 0.35 0.875 1.338 2.538 1.5 2.538 0.125 0 0.837-1.25 1.425-2.5 0.65-1.375 1.012-2.663 1.137-4.038 0.050-0.525 0.137-0.962 0.2-0.962 0.3 0 2.863 1.050 3.387 1.387 1.113 0.712 1.663 2.163 1.3 3.4-0.6 2.050-3.663 3.125-8.262 2.925-4.125-0.188-6.45-1.3-6.938-3.337-0.125-0.512-0.113-0.725 0.050-1.3 0.387-1.3 1.175-1.887 3.775-2.775 0.75-0.262 1.387-0.488 1.412-0.5 0.063-0.050-0.238-0.425-0.35-0.425-0.037 0-0.613 0.188-1.262 0.425z"></path>
<path d="M20.212 19.575c-0.050 0.050-0.087 0.337-0.087 0.625v0.538l-1.188 0.075v1l1.175 0.075 0.075 1.175h1l0.075-1.175 1.175-0.075v-1l-1.175-0.075-0.038-0.587c-0.038-0.575-0.050-0.587-0.475-0.625-0.25-0.025-0.488 0-0.538 0.050z"></path>
</symbol>
</defs>
</svg>
